<?xml version="1.0" encoding="UTF-8" standalone="no"?>
<!-- Created with Inkscape (http://www.inkscape.org/) -->

<svg
   width="32.0px"
   height="32.0px"
   viewBox="0 0 32.0 32.0"
   version="1.1"
   id="SVGRoot"
   xmlns="http://www.w3.org/2000/svg"
   xmlns:svg="http://www.w3.org/2000/svg">
  <defs
     id="defs25" />
  <g
     id="layer1">
    <g
       id="g109"
       transform="scale(0.08602151)">
      <g
         id="Layer_2">
	<g
   id="g76">
		<path
   class="st0"
   d="m 353.4,156.2 c 1.7,-10.9 -2.4,-22.1 -6.1,-32.5 -0.4,-1.2 -0.9,-2.5 -1.4,-3.7 0,-0.1 0,-0.1 0,-0.2 -0.1,-3.4 -1.4,-6.2 -3.5,-8.5 -6,-14 -14,-27.2 -25.3,-37.1 -1.6,-2.7 -4.3,-4.7 -7.3,-5.6 -1.1,-0.8 -2.3,-1.5 -3.5,-2.2 -1.3,-0.8 -2.6,-0.9 -3.7,-0.5 C 298.3,51.6 291.3,38.4 282.2,27 269.8,21 257,15.4 244.1,10.8 c -8,0 -16.2,-0.4 -21.7,-5.5 -0.1,-0.1 -0.2,-0.2 -0.3,-0.3 -1.6,-0.3 -3.2,-0.6 -4.8,-1 -0.5,0.3 -1,0.6 -1.7,0.7 -6.2,1 -12.3,1.2 -18.4,1.1 -0.6,0 -1.2,0.1 -1.8,0.1 -6.6,0.4 -13.3,0.4 -20,0.6 -7,0.1 -14,-0.1 -20.9,-0.9 -1.4,0.3 -2.9,0.6 -4.3,0.8 -13.4,2.7 -27.5,4.3 -39.5,11.3 -1.1,0.7 -2.3,0.8 -3.3,0.7 C 97.7,28.4 89.7,40.2 84.1,53.3 81.2,52.9 78,53.4 75.5,54.2 62.7,57.9 56,69.9 50,81 c -1.5,2.9 -3.1,5.7 -4.6,8.6 -0.8,0.6 -1.6,1.3 -2.4,1.9 -2.3,1.7 -2.7,4.2 -1.9,6.1 -4.8,8.8 -9.6,17.7 -14.3,26.5 -1.7,3.1 0.2,6 2.7,7.1 -1.3,3.3 -2.6,6.6 -3.8,10 -0.7,2.1 -1.4,4.2 -2.1,6.3 -0.6,0.7 -1.1,1.5 -1.3,2.7 -1.2,0.3 -2.2,1 -2.9,2.3 -2.9,5.6 -4.4,11.6 -4.2,17.9 0,0.9 0.3,1.7 0.7,2.4 -4.7,21.5 -11.9,44.6 6.3,61.1 4.1,3.7 11,-1 7.9,-6.1 -0.7,-1.1 -0.7,-2.4 0.8,-2.8 0.7,-0.2 1.3,-0.6 1.8,-1 0.6,-0.2 1.1,-0.4 1.7,-0.6 2.6,-1.3 3,-3.7 2.1,-5.8 3.6,-3.6 7.6,-6.8 12.2,-9.3 5,-2.8 11.6,-6.8 15.6,-1 3.2,4.7 5.1,10 8.7,14.5 3.7,4.8 8.7,9.6 14.3,12.1 5.8,2.6 11,0.4 15.7,-3.2 4.5,-3.5 9.1,-6.3 14.3,-8.7 9.4,-4.4 18.9,-8.5 25.2,-16.9 14.9,6.9 31.4,10.7 48.9,10.7 20.7,0 40.1,-5.4 57,-14.9 2.6,2.6 5,5.3 7.6,8 3.3,3.5 6.6,6.9 10.3,9.8 2,1.6 4,3.1 6.2,4.4 1,0.6 2.1,1.1 3.1,1.7 1.2,0.7 1.8,1.9 2.2,0.4 -1.5,5.4 6.3,8.8 9.1,3.9 4.4,-7.5 10,-14.2 16.6,-19.8 3.9,-0.3 7.8,-1.5 11.5,-3.4 1.7,-0.9 3.8,-2.4 5.7,-4.1 0.2,0.1 0.3,0.2 0.2,0.2 1.4,1.2 2.7,2.5 4.1,3.8 0.9,1.6 2.2,2.9 3.9,3.8 5.3,5.3 10.3,10.9 15.1,16.7 2.9,3.6 8.3,0.4 8.5,-3.5 0.2,-3.1 0.3,-6.2 0.5,-9.3 0.1,-1 -0.2,-1.9 -0.6,-2.6 0.8,-0.8 1.3,-1.9 1.2,-3.5 -0.4,-8.9 -0.3,-17.7 0.1,-26.6 0.6,-6.9 1.2,-13.9 1.6,-20.8 0,-1.7 -0.8,-3.1 -1.9,-3.8 z"
   id="path72" />

		<path
   class="st1"
   d="m 243.5,85 c 2.3,-15.3 -9.3,-23.5 -25.2,-28.9 l 5.2,-20.7 -12.6,-3.1 -5,20.1 c -3.3,-0.8 -6.7,-1.6 -10.1,-2.4 l 5.1,-20.3 -12.6,-3.1 -5.3,20.7 c -2.7,-0.6 -5.4,-1.2 -8,-1.9 V 45.3 L 157.7,41 154.4,54.4 c 0,0 9.3,2.1 9.1,2.3 5.1,1.3 6,4.6 5.9,7.3 l -5.9,23.5 c 0.3,0.1 0.8,0.2 1.3,0.4 l -1.3,-0.3 -8.2,33 c -0.6,1.5 -2.2,3.9 -5.8,3 0.1,0.2 -9.1,-2.3 -9.1,-2.3 l -6.2,14.4 16.4,4.1 c 3,0.8 6,1.6 9,2.3 l -5.2,20.9 12.6,3.1 5.2,-20.7 c 3.4,0.9 6.8,1.8 10,2.6 l -5.1,20.6 12.6,3.1 5.2,-20.9 c 21.5,4.1 37.6,2.4 44.4,-17 5.5,-15.6 -0.3,-24.6 -11.6,-30.5 7.9,-1.7 14.1,-7.1 15.8,-18.3 z m -28.8,40.3 c -3.9,15.6 -30.2,7.2 -38.7,5.1 l 6.9,-27.7 c 8.5,2.1 35.9,6.3 31.8,22.6 z m 3.9,-40.5 c -3.5,14.2 -25.4,7 -32.5,5.2 l 6.3,-25.1 c 7,1.8 29.9,5.1 26.2,19.9 z"
   id="path74" />

	</g>

</g>
      <g
         id="Layer_3">
	<path
   class="st2"
   d="m 237.7,207.7 c -1.8,-0.7 -3.6,-1.1 -5.4,-1.2 -0.4,-0.3 -0.9,-0.5 -1.4,-0.7 -0.1,-0.2 -0.2,-0.4 -0.4,-0.6 -0.6,-0.8 -1.2,-1.6 -1.9,-2.3 -0.8,-1.6 -2.3,-3 -4.1,-4 -0.7,-2.4 -2,-4.7 -4,-6.6 -0.4,-0.4 -0.9,-0.7 -1.3,-1 -1.9,-5.3 -6,-9.7 -11.1,-11.8 -0.6,-1.6 -1.5,-3 -2.9,-4.1 -0.2,-0.2 -0.4,-0.3 -0.6,-0.4 -1.4,-2.9 -3.5,-5.4 -6,-7.2 -2.9,-3.2 -6.5,-5.3 -11.7,-4.9 -5.6,0.5 -10.2,3.9 -13.7,8 -2.1,2.4 -4.1,4.7 -6.3,7 -2.9,-2.2 -8.8,0.5 -8.1,5.5 0.1,0.6 0.1,1.2 0.2,1.8 -4.2,3.5 -8.5,7.2 -11.7,11.6 -2.2,1.3 -4.1,3.5 -5.5,6.7 -2.8,6.4 -3.3,15.2 0.2,21.4 1.1,4 3.1,7.6 6.2,10.4 7.7,7 20.2,6.7 25.9,-2.7 1.5,-2.5 2.3,-5.2 2.5,-7.9 2.5,-2.8 4.5,-6.2 5.4,-9.7 0.8,-0.6 1.5,-1.5 2,-2.7 3,0.9 5.9,0.4 8.5,-0.9 1.8,0.6 3.7,0.8 5.5,0.5 0.8,1.5 1.9,2.8 3.1,3.8 -0.2,3.5 0.3,7 1.6,10.2 2.5,6.2 8.3,11.9 15.4,11 4.5,-0.6 7.5,-3.6 9.4,-7.3 2,-0.2 4,-0.9 5.7,-2 5.2,-3.4 7.8,-9 8.1,-15 0.2,-2.4 -1.6,-4.1 -3.6,-4.9 z"
   id="path79" />

	<path
   class="st3"
   d="m 318.1,286.8 c -2.9,-1.9 -5.8,-3.7 -8.8,-5.4 -1.3,-1.8 -2.7,-3.5 -4.1,-5 -8.4,-8.8 -18,-15.9 -26.9,-24.1 -7.9,-7.3 -11.1,-18.1 -20,-24.5 -1,-0.7 -2,-0.9 -3,-0.8 -1,-2.6 -3.9,-4.4 -6.9,-2.4 -6.3,4.3 -11.4,9.8 -14.9,16.5 -1.9,1 -3.6,2.3 -5.3,3.7 -0.1,0 -0.2,0 -0.3,0 -4.7,0.2 -9.3,0.7 -14,1.4 -0.3,0.1 -0.7,0.1 -1,0.2 -8.1,-4.1 -14.3,-10.2 -18.6,-18.2 -1.5,-2.9 -5.6,-3.2 -7.9,-1 -0.9,0.9 -1.6,1.8 -2.2,2.8 -8.9,4.2 -13,13.9 -21.1,19.4 -1.9,1.3 -4.4,3.1 -6.6,3.6 -2.7,0.7 -3.8,-0.9 -5.7,-2.8 -4,-3.8 -7.8,-7.8 -11.4,-12 -1.3,-1.6 -3,-1.9 -4.5,-1.4 -1.5,-2.8 -3,-5.7 -4.9,-8.3 -0.8,-1.1 -1.8,-1.7 -2.8,-2 -1.7,-1.9 -4.7,-2.7 -7,-0.2 -6.2,6.7 -13.5,11.3 -21.9,14.7 -7.9,3.2 -15.4,6.4 -21,13.1 -5.1,6 -8.5,13.2 -10.4,20.7 -0.7,2.5 -1.1,5.3 -1.5,8 -2.5,3 -4.6,6.3 -6,10.1 -1.8,1.3 -2.7,3.5 -1.3,5.8 -0.1,0.7 -0.2,1.4 -0.2,2.1 -0.2,3.9 4.2,5.9 7.3,4.4 0.9,0.5 1.8,1 2.8,1.5 4.6,2.4 6.9,6 10.2,9.9 0.8,1 1.6,1.8 2.5,2.6 3.9,7.6 9.9,13 16.8,17.2 3.2,2.7 7.4,4.6 11.9,5.8 6,2.4 12.3,4.3 18.2,6.1 12,3.6 24.2,6.9 36.8,8 12.6,1 25.3,-0.7 37.6,-3.1 24,-4.5 48.1,-9.3 70.2,-19.8 14.6,-6.9 42.8,-15.1 42,-35.7 0,-0.5 -0.1,-1 -0.1,-1.5 4.8,1.8 9,-6 4,-9.4 z m -225,-31.1 c -0.1,0 -0.2,0 -0.3,0.1 -2,0.6 -3.8,1.4 -5.5,2.3 2.6,-2.3 5.5,-3.9 8.6,-5.4 -1,1 -1.9,2 -2.8,3 z"
   id="path81" />

	<path
   class="st2"
   d="m 79.8,236.5 c -1.5,-0.9 -3,-1.3 -4.5,-1.4 -0.2,-0.2 -0.3,-0.3 -0.5,-0.5 -1,-1.9 -2.5,-3.7 -4.3,-5.2 -0.2,-0.3 -0.4,-0.6 -0.6,-1 -0.2,-1 -0.5,-1.9 -0.9,-2.6 -1.4,-2.9 -3.8,-6.2 -7.1,-6.8 -1.7,-1.6 -4.4,-2.1 -6.6,-0.1 -2,0.1 -3.9,0.9 -5.4,2.2 -1.1,0.9 -1.8,2 -2.4,3.2 -0.2,0.1 -0.3,0.2 -0.5,0.3 -2.6,1.5 -4.9,3.2 -6.5,4.4 -2.8,2.1 -5.3,4.6 -7,7.6 -2,3.4 -1.9,8.3 -4.4,11.3 -1.8,2.1 -1.4,4.7 -0.2,6.5 0,0.6 0.1,1.2 0.2,1.8 0.1,0.8 0.4,1.6 0.7,2.4 0.4,4.9 2.5,9.6 6.5,12.7 1.4,1.1 3,2 4.7,2.5 0.3,0.6 0.8,1.1 1.3,1.6 0.9,2 2.2,3.4 5.1,3.7 2.2,0.2 4.1,-0.7 5.8,-2 0.8,0.4 1.6,0.7 2.6,0.8 7.1,0.8 11.9,-8.1 14.1,-13.5 1,-2.4 2,-5.4 2.7,-8.5 1,-0.9 2.1,-1.8 3.2,-2.8 0.9,-0.2 1.7,-0.4 2.5,-0.8 6.2,-2.8 7.8,-11.7 1.5,-15.8 z"
   id="path83" />

	<path
   class="st2"
   d="m 343.7,243 c -2,-2.3 -5,-4.4 -8.1,-5.9 -1.1,-1.1 -2.6,-1.9 -4.1,-1.6 -0.2,-0.2 -0.3,-0.4 -0.5,-0.6 1,-2.3 0.9,-4.8 -0.8,-6.9 -2.4,-2.9 -6.1,-2.4 -9.4,-1.5 1.6,-2.8 -0.1,-6.5 -2.9,-7.4 -0.9,-1 -2,-2 -3.4,-2.6 -2.7,-1.3 -6.3,-0.4 -7.2,2.7 -1.4,0.1 -2.7,0.7 -3.9,1.8 -1.7,1.7 -2.4,3.9 -2.3,6.3 -0.3,0.4 -0.6,0.8 -0.9,1.2 -0.8,1.1 -1.4,2.3 -2,3.6 -0.1,0.1 -0.3,0.2 -0.4,0.3 -9.5,1.4 -14.5,14.3 -6.6,21.3 2.3,2 4.9,3 7.4,3.2 0.1,0.2 0.2,0.4 0.3,0.6 2.4,4.8 6.9,8.4 11.7,10 0.4,2 1.6,4 4,5.7 0.5,0.4 1,0.7 1.5,0.9 -0.8,3.7 3.6,7.7 7.5,5.4 3.6,-2 6.3,-4.9 8.4,-8.3 1.4,-1.3 2.6,-2.8 3.5,-4.6 1,-1.2 1.8,-2.4 2.4,-3.8 2.1,-1.2 4,-2.8 5.3,-4.9 3,-4.4 4.2,-10.5 0.5,-14.9 z"
   id="path85" />

</g>
      <g
         id="Capa_1">
	<path
   d="m 281.6,26.5 c -0.1,0 -0.1,-0.1 -0.2,-0.1 C 253.5,9.6 220.8,0 186,0 83.4,0 0,83.4 0,186 0,288.6 83.4,372 186,372 288.6,372 372,288.6 372,186 372,118.4 335.7,59 281.6,26.5 Z m -234,251 c -6.1,-9.2 -11.3,-19 -15.5,-29.3 0.3,-0.2 0.6,-0.5 0.9,-0.8 l 24.1,-24.1 22.3,22.3 z M 186,352 C 135.5,352 90.2,329.3 59.7,293.6 l 65.3,-65.3 24.4,24.4 c 1.9,1.9 4.4,2.9 7.1,2.9 2.7,0 5.2,-1.1 7.1,-2.9 l 25.5,-25.5 25.5,25.5 c 1.9,1.9 4.4,2.9 7.1,2.9 2.7,0 5.2,-1.1 7.1,-2.9 l 23.9,-23.9 62,62 C 284.2,328.1 237.8,352 186,352 Z m -46.8,-137.8 49.4,-49.4 49.9,49.9 -16.8,16.8 -25.6,-25.5 c -1.9,-1.9 -4.4,-2.9 -7.1,-2.9 -2.7,0 -5.2,1.1 -7.1,2.9 l -25.5,25.5 z m 187.3,60.2 -31.3,-31.3 19.7,-19.7 24.1,24.1 c 0.3,0.3 0.6,0.5 0.9,0.8 -3.7,9.1 -8.2,17.8 -13.4,26.1 z M 322,202.2 c -3.9,-3.9 -10.2,-3.9 -14.1,0 L 281.1,229 195.7,143.6 c -1.9,-1.9 -4.4,-2.9 -7.1,-2.9 -2.7,0 -5.2,1.1 -7.1,2.9 l -88,88 -29.4,-29.4 c -3.9,-3.9 -10.2,-3.9 -14.1,0 L 25.1,227 C 21.7,213.9 20,200.1 20,186 20,94.5 94.5,20 186,20 c 91.5,0 166,74.5 166,166 0,14.2 -1.8,27.9 -5.1,41 z"
   id="path88" />

</g>
    </g>
  </g>
  <style
     type="text/css"
     id="style70">
	.st0{fill-rule:evenodd;clip-rule:evenodd;fill:#F7931A;}
	.st1{fill:#FFFFFF;}
	.st2{fill-rule:evenodd;clip-rule:evenodd;fill:#FFFFFF;}
	.st3{fill-rule:evenodd;clip-rule:evenodd;fill:#603913;}
</style>
</svg>
